<?xml version="1.0" encoding="utf-8"?>
<!-- Generator: Adobe Illustrator 22.1.0, SVG Export Plug-In . SVG Version: 6.00 Build 0)  -->
<svg version="1.1" id="Layer_1" xmlns="http://www.w3.org/2000/svg" xmlns:xlink="http://www.w3.org/1999/xlink" x="0px" y="0px"
	 viewBox="0 0 72 48" style="enable-background:new 0 0 72 48;" xml:space="preserve">
<style type="text/css">
	.st0{fill:#B6B8BF;}
	.st1{fill:#FFFFFF;}
</style>
<path class="st0" d="M44.2,23.6H27.8c-1.4,0-2.5-1.1-2.5-2.5V4.8c0-1.4,1.1-2.5,2.5-2.5h16.3c1.4,0,2.5,1.1,2.5,2.5v16.3
	C46.6,22.3,45.5,23.6,44.2,23.6z"/>
<g>
	<polygon class="st1" points="36.1,9.1 30.7,15.7 41.4,15.7 	"/>
</g>
<path class="st0" d="M21.6,45.7H5.3c-1.4,0-2.5-1.1-2.5-2.5V26.9c0-1.4,1.1-2.5,2.5-2.5h16.3c1.4,0,2.5,1.1,2.5,2.5v16.3
	C24.1,44.6,23,45.7,21.6,45.7z"/>
<polygon class="st1" points="9,35.1 15.8,40.5 15.8,29.8 "/>
<path class="st0" d="M44.2,45.7H27.8c-1.4,0-2.5-1.1-2.5-2.5V26.9c0-1.4,1.1-2.5,2.5-2.5h16.3c1.4,0,2.5,1.1,2.5,2.5v16.3
	C46.6,44.6,45.5,45.7,44.2,45.7z"/>
<polygon class="st1" points="36,38.4 41.4,31.7 30.6,31.7 "/>
<path class="st0" d="M66.7,45.7H50.4c-1.4,0-2.5-1.1-2.5-2.5V26.9c0-1.4,1.1-2.5,2.5-2.5h16.3c1.4,0,2.5,1.1,2.5,2.5v16.3
	C69.2,44.6,68.1,45.7,66.7,45.7z"/>
<polygon class="st1" points="63,35.1 56.3,29.8 56.3,40.5 "/>
</svg>
