<?xml version="1.0" encoding="utf-8"?>
<!-- Generator: Adobe Illustrator 22.1.0, SVG Export Plug-In . SVG Version: 6.00 Build 0)  -->
<svg version="1.1" id="Layer_1" xmlns="http://www.w3.org/2000/svg" xmlns:xlink="http://www.w3.org/1999/xlink" x="0px" y="0px"
	 viewBox="0 0 48 48" style="enable-background:new 0 0 48 48;" xml:space="preserve">
<style type="text/css">
	.st0{fill:none;stroke:#B6B8BF;stroke-miterlimit:10;}
	.st1{fill:#B6B8BF;}
</style>
<path class="st0" d="M14.9,26.9c-5.5-1.7-9.4-6.8-9.4-12.8c0-7.4,6.2-13.5,13.7-13.5s13.7,6.1,13.7,13.5c0,2.7-0.9,5.3-2.2,7.4"/>
<path class="st0" d="M15.2,22.5c-3.3-1.4-5.5-4.7-5.5-8.5c0-5.3,4.3-9.4,9.5-9.4s9.5,4.3,9.5,9.4c0,1.6-0.4,3-1,4.3"/>
<polygon class="st1" points="24.6,36.9 29.4,35.2 33.5,46.1 28.7,47.9 "/>
<polygon class="st1" points="18.9,13.9 17.2,45.9 25.4,37.5 29.9,35.8 41.4,37.1 "/>
</svg>
