<?xml version="1.0" encoding="utf-8"?>
<!-- Generator: Adobe Illustrator 22.1.0, SVG Export Plug-In . SVG Version: 6.00 Build 0)  -->
<svg version="1.1" id="Layer_1" xmlns="http://www.w3.org/2000/svg" xmlns:xlink="http://www.w3.org/1999/xlink" x="0px" y="0px"
	 viewBox="0 0 48 48" style="enable-background:new 0 0 48 48;" xml:space="preserve">
<style type="text/css">
	.st0{fill:none;stroke:#B6B8BF;stroke-miterlimit:10;}
	.st1{fill:#B6B8BF;}
</style>
<path class="st0" d="M12.9,25c-3.8-1.5-6.7-4.7-7.6-9C3.8,9.2,8.2,2.5,14.9,1.1s13.5,2.8,14.9,9.6c0.6,2.4,0.3,5-0.6,7.2"/>
<path class="st0" d="M14.5,21.6c-3.1-1-5.5-3.9-5.9-7.4c-0.5-4.8,3-9.1,7.8-9.6c4.8-0.5,9.1,3,9.6,7.8c0.1,1.4-0.1,2.8-0.6,4"/>
<g>
	<path class="st1" d="M25.7,39.1L25,39.3c-1.3,0.3-2.5-0.3-2.9-1.6l-6.2-20.4c-0.3-1.3,0.3-2.5,1.6-2.9l0.7-0.2
		c1.3-0.3,2.5,0.3,2.9,1.6l6.2,20.4C27.7,37.3,26.9,38.7,25.7,39.1z"/>
	<path class="st1" d="M36.8,46.7l-2.9,0.9c-4.8,1.5-10-1.3-11.5-6.1l-0.9-2.9c-1.5-4.8,1.3-10,6.1-11.5l2.9-0.9
		c4.8-1.5,10,1.3,11.5,6.1l0.9,2.9C44.4,40,41.6,45.2,36.8,46.7z"/>
	<path class="st1" d="M30.4,37.4l-0.5,0.1c-1.1,0.3-2.2-0.3-2.5-1.6l-3.8-14.1c-0.3-1.3,0.3-2.5,1.4-2.9l0.6-0.2
		c1.1-0.3,2.2,0.3,2.5,1.6l3.7,14.2C32.1,35.7,31.5,37,30.4,37.4z"/>
	<path class="st1" d="M40.7,35.6l-0.6,0.2c-1.1,0.3-2.2-0.3-2.5-1.6l-2.6-9.9c-0.3-1.3,0.3-2.5,1.4-2.9l0.6-0.2
		c1.1-0.3,2.2,0.3,2.5,1.6l2.6,9.9C42.4,34,41.8,35.3,40.7,35.6z"/>
	<path class="st1" d="M28.9,45.2L28.9,45.2c-0.8,1.3-2.5,1.5-3.8,0.5l-8.4-7.3c-1.3-1-1.5-3-0.7-4.4l0,0c0.8-1.3,2.5-1.5,3.8-0.5
		l8.4,7.3C29.5,41.9,29.9,43.8,28.9,45.2z"/>
	<path class="st1" d="M34.7,33.2l-0.6,0.2c-1.1,0.3-2.2-0.3-2.5-1.6l-2.6-9.9c-0.3-1.3,0.3-2.5,1.4-2.9l0.6-0.2
		c1.1-0.3,2.2,0.3,2.5,1.6l2.6,9.9C36.4,31.5,35.8,32.9,34.7,33.2z"/>
</g>
</svg>
