<?xml version="1.0" encoding="UTF-8" standalone="no"?>
<!-- Created with Inkscape (http://www.inkscape.org/) -->

<svg
   xmlns:dc="http://purl.org/dc/elements/1.1/"
   xmlns:cc="http://creativecommons.org/ns#"
   xmlns:rdf="http://www.w3.org/1999/02/22-rdf-syntax-ns#"
   xmlns:svg="http://www.w3.org/2000/svg"
   xmlns="http://www.w3.org/2000/svg"
   xmlns:sodipodi="http://sodipodi.sourceforge.net/DTD/sodipodi-0.dtd"
   xmlns:inkscape="http://www.inkscape.org/namespaces/inkscape"
   width="40"
   height="40"
   viewBox="0 0 10.583333 10.583334"
   version="1.1"
   id="svg4860"
   inkscape:version="0.92.1 r15371"
   sodipodi:docname="github-mark.svg">
  <defs
     id="defs4854" />
  <sodipodi:namedview
     id="base"
     pagecolor="#ffffff"
     bordercolor="#666666"
     borderopacity="1.0"
     inkscape:pageopacity="0.0"
     inkscape:pageshadow="2"
     inkscape:zoom="11.2"
     inkscape:cx="9.9617279"
     inkscape:cy="19.42538"
     inkscape:document-units="px"
     inkscape:current-layer="layer1"
     showgrid="false"
     units="px"
     inkscape:window-width="1855"
     inkscape:window-height="1056"
     inkscape:window-x="65"
     inkscape:window-y="24"
     inkscape:window-maximized="1" />
  <metadata
     id="metadata4857">
    <rdf:RDF>
      <cc:Work
         rdf:about="">
        <dc:format>image/svg+xml</dc:format>
        <dc:type
           rdf:resource="http://purl.org/dc/dcmitype/StillImage" />
        <dc:title></dc:title>
      </cc:Work>
    </rdf:RDF>
  </metadata>
  <g
     inkscape:label="Layer 1"
     inkscape:groupmode="layer"
     id="layer1"
     transform="translate(0,-286.41665)">
    <path
       d="M 5.291214,286.54894 C 2.369156,286.54894 0,288.91733 0,291.83905 c 0,2.3372 1.5160913,4.31976 3.6188682,5.01958 0.2647548,0.0485 0.3612363,-0.11495 0.3612363,-0.25524 0,-0.12535 -0.00452,-0.4582 -0.00718,-0.89954 -1.471911,0.31955 -1.7824704,-0.70925 -1.7824704,-0.70925 -0.2407171,-0.61084 -0.5876599,-0.77354 -0.5876599,-0.77354 -0.480459,-0.32831 0.036382,-0.32181 0.036382,-0.32181 0.531135,0.0377 0.8105091,0.54524 0.8105091,0.54524 0.472013,0.8083 1.2386665,0.57479 1.5401308,0.43971 0.048077,-0.34196 0.184517,-0.57514 0.3358983,-0.70731 C 3.1507179,294.04343 1.9153,293.58944 1.9153,291.56239 c 0,-0.57741 0.2062821,-1.04959 0.544779,-1.41947 -0.054579,-0.13381 -0.2361681,-0.67159 0.05165,-1.39999 0,0 0.4443997,-0.14223 1.4553432,0.54233 0.4219853,-0.11723 0.8748308,-0.17602 1.3247527,-0.17797 0.4492726,0.002 0.9021182,0.0608 1.3247527,0.17797 1.0102944,-0.68456 1.4537186,-0.54233 1.4537186,-0.54233 0.2887954,0.7284 0.1072021,1.26618 0.052625,1.39999 0.339147,0.36988 0.5441299,0.84206 0.5441299,1.41947 0,2.03224 -1.2373665,2.47942 -2.4162602,2.61028 0.1900393,0.16336 0.3592878,0.48614 0.3592878,0.97976 0,0.70697 -0.00653,1.27753 -0.00653,1.45096 0,0.1416 0.095183,0.30625 0.3638366,0.2546 2.1011545,-0.70112 3.6159477,-2.6824 3.6159477,-5.01894 0,-2.92172 -2.3694824,-5.29011 -5.2921885,-5.29011"
       style="fill:#1b1817;fill-opacity:1;fill-rule:evenodd;stroke:none;stroke-width:0.35277775"
       id="path24"
       inkscape:connector-curvature="0" />
  </g>
</svg>
