<?xml version="1.0" standalone="no"?>
<!DOCTYPE svg PUBLIC "-//W3C//DTD SVG 20010904//EN"
 "http://www.w3.org/TR/2001/REC-SVG-20010904/DTD/svg10.dtd">
<svg version="1.0" xmlns="http://www.w3.org/2000/svg"
 width="432.000000pt" height="432.000000pt" viewBox="0 0 432.000000 432.000000"
 preserveAspectRatio="xMidYMid meet">
<metadata>
Created by potrace 1.11, written by Peter Selinger 2001-2013
</metadata>
<g transform="translate(0.000000,432.000000) scale(0.100000,-0.100000)"
fill="#000000" stroke="none">
<path d="M2080 4240 l0 -80 -80 0 -80 0 0 -160 0 -160 -80 0 -80 0 0 -160 0
-160 -80 0 -80 0 0 -80 0 -80 -80 0 -80 0 0 -80 0 -80 -80 0 -80 0 0 -80 0
-80 -160 0 -160 0 0 -80 0 -80 -160 0 -160 0 0 -80 0 -80 -80 0 -80 0 0 -80 0
-80 -80 0 -80 0 0 -80 0 -80 -80 0 -80 0 0 -160 0 -160 -80 0 -80 0 0 -480 0
-480 80 0 80 0 0 -160 0 -160 80 0 80 0 0 -80 0 -80 80 0 80 0 0 -80 0 -80 80
0 80 0 0 -80 0 -80 160 0 160 0 0 -80 0 -80 240 0 240 0 0 -80 0 -80 720 0
720 0 0 80 0 80 240 0 240 0 0 80 0 80 160 0 160 0 0 80 0 80 80 0 80 0 0 80
0 80 80 0 80 0 0 80 0 80 80 0 80 0 0 160 0 160 80 0 80 0 0 480 0 480 -80 0
-80 0 0 160 0 160 -80 0 -80 0 0 80 0 80 -80 0 -80 0 0 80 0 80 -80 0 -80 0 0
80 0 80 -160 0 -160 0 0 80 0 80 -160 0 -160 0 0 80 0 80 -80 0 -80 0 0 80 0
80 -80 0 -80 0 0 80 0 80 -80 0 -80 0 0 160 0 160 -80 0 -80 0 0 160 0 160
-80 0 -80 0 0 80 0 80 -80 0 -80 0 0 -80z m160 -240 l0 -160 80 0 80 0 0 -160
0 -160 80 0 80 0 0 -80 0 -80 80 0 80 0 0 -80 0 -80 80 0 80 0 0 -80 0 -80 80
0 80 0 0 -80 0 -80 80 0 80 0 0 -80 0 -80 160 0 160 0 0 -80 0 -80 160 0 160
0 0 -160 0 -160 80 0 80 0 0 -400 0 -400 -80 0 -80 0 0 -80 0 -80 -80 0 -80 0
0 -80 0 -80 -80 0 -80 0 0 -80 0 -80 -80 0 -80 0 0 -80 0 -80 -80 0 -80 0 0
-80 0 -80 -80 0 -80 0 0 80 0 80 -160 0 -160 0 0 80 0 80 160 0 160 0 0 -80 0
-80 80 0 80 0 0 80 0 80 80 0 80 0 0 80 0 80 -1200 0 -1200 0 0 -80 0 -80 80
0 80 0 0 -80 0 -80 80 0 80 0 0 80 0 80 160 0 160 0 0 -80 0 -80 -160 0 -160
0 0 -80 0 -80 -80 0 -80 0 0 80 0 80 -80 0 -80 0 0 80 0 80 -80 0 -80 0 0 80
0 80 -80 0 -80 0 0 80 0 80 -80 0 -80 0 0 80 0 80 -80 0 -80 0 0 400 0 400 80
0 80 0 0 160 0 160 160 0 160 0 0 80 0 80 160 0 160 0 0 80 0 80 80 0 80 0 0
80 0 80 80 0 80 0 0 80 0 80 80 0 80 0 0 80 0 80 80 0 80 0 0 80 0 80 80 0 80
0 0 160 0 160 80 0 80 0 0 160 0 160 80 0 80 0 0 -160z m-160 -3200 l0 -160
-160 0 -160 0 0 160 0 160 160 0 160 0 0 -160z m480 0 l0 -160 -160 0 -160 0
0 160 0 160 160 0 160 0 0 -160z m-960 -240 l0 -80 -80 0 -80 0 0 80 0 80 80
0 80 0 0 -80z m1280 0 l0 -80 -80 0 -80 0 0 80 0 80 80 0 80 0 0 -80z m-320
-160 l0 -80 -400 0 -400 0 0 80 0 80 400 0 400 0 0 -80z"/>
<path d="M960 2320 l0 -80 -80 0 -80 0 0 -80 0 -80 -80 0 -80 0 0 -400 0 -400
80 0 80 0 0 -80 0 -80 80 0 80 0 0 80 0 80 -80 0 -80 0 0 400 0 400 80 0 80 0
0 80 0 80 400 0 400 0 0 -80 0 -80 80 0 80 0 0 -80 0 -80 80 0 80 0 0 -80 0
-80 80 0 80 0 0 80 0 80 80 0 80 0 0 80 0 80 80 0 80 0 0 80 0 80 400 0 400 0
0 -80 0 -80 80 0 80 0 0 -400 0 -400 -80 0 -80 0 0 -80 0 -80 80 0 80 0 0 80
0 80 80 0 80 0 0 400 0 400 -80 0 -80 0 0 80 0 80 -80 0 -80 0 0 80 0 80 -400
0 -400 0 0 -80 0 -80 -80 0 -80 0 0 -80 0 -80 -80 0 -80 0 0 -80 0 -80 -80 0
-80 0 0 80 0 80 -80 0 -80 0 0 80 0 80 -80 0 -80 0 0 80 0 80 -400 0 -400 0 0
-80z"/>
<path d="M1280 1600 l0 -160 160 0 160 0 0 160 0 160 -160 0 -160 0 0 -160z"/>
<path d="M2720 1600 l0 -160 160 0 160 0 0 160 0 160 -160 0 -160 0 0 -160z"/>
</g>
</svg>
